<?xml version="1.0" encoding="UTF-8"?>
<svg version="1.1" xmlns="http://www.w3.org/2000/svg" width="900" height="900">
<path d="M0 0 C5.05884845 0.07475883 10.116624 0.02193379 15.17566979 -0.0146265 C25.07221676 -0.06610932 34.96467216 -0.00066076 44.86065733 0.10475183 C56.38529104 0.22312273 67.90907402 0.22517799 79.43420816 0.22260237 C99.99344351 0.22197435 120.55078841 0.32674707 141.10930932 0.49104977 C161.05979846 0.65040075 181.0087597 0.73526696 200.95989525 0.73714352 C202.1897036 0.7372694 203.41951194 0.73739529 204.68658721 0.73752499 C205.9142706 0.7376408 207.14195399 0.73775661 208.40683991 0.73787594 C231.12665264 0.74045581 253.84583753 0.80869249 276.5654128 0.91001606 C284.60033594 0.94449307 292.63517349 0.96016086 300.67015946 0.97029781 C310.45569483 0.98408261 320.2402102 1.03608681 330.02526032 1.13573003 C335.01869776 1.18591357 340.01089458 1.22037876 345.00460732 1.21189785 C349.57425318 1.20471489 354.14107913 1.24361123 358.71007551 1.31972504 C360.36444677 1.33926038 362.01911865 1.34194484 363.67353099 1.32626915 C376.05834074 1.22312883 376.05834074 1.22312883 379.8501904 4.90756321 C381.40850763 7.46260251 382.53103001 9.90313349 383.57830346 12.70003414 C384.1736892 13.71565426 384.76907494 14.73127438 385.38250268 15.77767086 C385.87766381 16.63634762 386.37282494 17.49502438 386.88299096 18.37972164 C387.45783226 19.37600582 388.03267357 20.37229 388.62493432 21.39876461 C389.22829613 22.44693356 389.83165795 23.4951025 390.45330346 24.57503414 C391.10113793 25.69925777 391.7489724 26.82348141 392.41643822 27.98177242 C398.81855426 39.09734304 405.18190926 50.23506587 411.53919518 61.37631893 C413.91927864 65.54699449 416.30268908 69.7157561 418.68767846 73.88362789 C425.38974174 85.59771061 432.06995009 97.32329288 438.69378197 109.08187008 C441.64021887 114.30224248 444.61269611 119.50679969 447.61345971 124.69612789 C447.95452248 125.28603512 448.29558526 125.87594234 448.64698327 126.48372555 C450.30927857 129.35725592 451.97450507 132.2290214 453.64300072 135.09895992 C454.24297875 136.13391598 454.84295678 137.16887203 455.46111596 138.23519039 C455.99108178 139.14663815 456.5210476 140.0580859 457.06707299 140.99715328 C458.66528405 143.85560154 460.1352022 146.76065338 461.57830346 149.70003414 C459.66740381 151.61093378 456.22057277 150.83359005 453.69293416 150.83869934 C452.96071451 150.84154156 452.22849486 150.84438378 451.47408673 150.84731212 C448.98927828 150.85571815 446.50451608 150.85693192 444.01969445 150.85825253 C442.23279169 150.86281387 440.44589001 150.86781325 438.65898961 150.87321609 C433.72436985 150.8868554 428.78975701 150.89423222 423.85512328 150.90064275 C418.54288116 150.90862138 413.23065357 150.92232782 407.91842186 150.93535519 C398.70653212 150.95715408 389.49464093 150.97528603 380.2827388 150.99096012 C366.96370901 151.01362776 353.64469527 151.04177483 340.32567907 151.0712794 C318.71889493 151.1189935 297.11210424 151.16224729 275.50530541 151.20271969 C254.51050855 151.24205522 233.51571753 151.28347676 212.52093041 151.32771969 C211.22782405 151.33044396 209.93471769 151.33316823 208.60242628 151.33597506 C202.11559399 151.34965422 195.62876179 151.36337455 189.14192963 151.37711537 C135.28739972 151.4911401 81.4328572 151.59793615 27.57830346 151.70003414 C27.23438498 152.33233787 26.8904665 152.96464159 26.53612626 153.61610603 C24.96225156 156.50867859 23.38723038 159.40062536 21.81219018 162.29256344 C21.00070771 163.78456894 21.00070771 163.78456894 20.17283165 165.30671597 C16.46370338 172.11448792 12.66282576 178.84700664 8.70330346 185.51253414 C3.89149275 193.68616796 -0.81082439 201.91142719 -5.42169654 210.20003414 C-10.55782864 219.42944707 -15.82382437 228.5724081 -21.17169654 237.68050289 C-25.94180594 245.82589058 -30.55910484 254.05061281 -35.14532936 262.30062008 C-39.96265623 270.9424312 -44.93256889 279.48969044 -49.98029029 287.99886227 C-50.80980201 289.40555172 -50.80980201 289.40555172 -51.65607154 290.84065914 C-52.1430149 291.66082516 -52.62995826 292.48099117 -53.13165748 293.3260107 C-55.09496739 296.88186244 -55.09496739 296.88186244 -56.42169654 300.70003414 C-55.54659401 303.48243905 -55.54659401 303.48243905 -53.82794654 306.25081539 C-53.21685035 307.32927731 -52.60575416 308.40773922 -51.9761399 309.5188818 C-51.29170178 310.6836538 -50.60687718 311.84819877 -49.92169654 313.01253414 C-49.22556667 314.2256761 -48.53100647 315.43972001 -47.83795631 316.65462399 C-46.06110255 319.75834158 -44.26270703 322.84888465 -42.45520484 325.93483639 C-40.89521042 328.59925491 -39.34482872 331.2692568 -37.79279029 333.93831539 C-36.0746948 336.88740492 -34.35358931 339.83457922 -32.62482154 342.77742672 C-28.46347235 349.86750075 -24.41900232 357.01635714 -20.42169654 364.20003414 C-15.84603202 372.42206098 -11.18595765 380.58582921 -6.42169654 388.70003414 C-0.99003982 397.95157325 4.2936607 407.27713635 9.51287377 416.64998531 C13.66650199 424.10065924 17.89825612 431.50155522 22.20403588 438.86531734 C22.8301577 439.93785763 22.8301577 439.93785763 23.46892846 441.03206539 C23.83018822 441.64799557 24.19144799 442.26392574 24.56365502 442.89852047 C25.6331388 444.79739458 26.60367343 446.75077409 27.57830346 448.70003414 C97.86830346 448.70003414 168.15830346 448.70003414 240.57830346 448.70003414 C247.29470277 437.51336192 247.29470277 437.51336192 252.57830346 425.70003414 C251.89023745 423.78412541 251.89023745 423.78412541 250.69939721 421.82112789 C250.27207299 421.06380367 249.84474877 420.30647945 249.40447533 419.52620602 C248.94621361 418.7379443 248.48795189 417.94968258 248.01580346 417.13753414 C247.58461205 416.37634274 247.15342064 415.61515133 246.70916283 414.83089352 C245.83924482 413.30307592 244.94736001 411.78752379 244.03231347 410.28629971 C242.57830346 407.70003414 242.57830346 407.70003414 241.58657372 405.08050442 C240.25201956 401.98192068 239.05187338 400.01651907 236.57830346 397.70003414 C230.95615771 396.21308551 225.43004617 396.4791469 219.65252221 396.63167477 C217.90771811 396.64100827 216.16288462 396.64579045 214.41805565 396.64636898 C210.66530929 396.65675836 206.91463239 396.69808952 203.16244042 396.76319027 C197.22890424 396.86474725 191.29653883 396.89005704 185.362239 396.90376949 C172.76692997 396.94359395 160.17292714 397.06752369 147.57830346 397.20003414 C133.98108637 397.34309307 120.38468421 397.47182763 106.78667843 397.50324869 C100.88781731 397.51976253 94.99209592 397.58486376 89.09412682 397.68719387 C85.42485222 397.74095308 81.75627838 397.75336186 78.0866462 397.75457859 C76.38611449 397.76367526 74.68557386 397.79000238 72.98561013 397.83488178 C60.11914078 398.16156156 60.11914078 398.16156156 56.26926529 394.50984669 C54.70683681 391.94642004 53.60453822 389.51410559 52.57830346 386.70003414 C51.68522484 385.17660397 51.68522484 385.17660397 50.77410424 383.62239742 C50.2789431 382.76372066 49.78378197 381.90504391 49.27361596 381.02034664 C48.69877465 380.02406246 48.12393334 379.02777828 47.5316726 378.00130367 C46.92831078 376.95313473 46.32494896 375.90496578 45.70330346 374.82503414 C45.05546898 373.70081051 44.40763451 372.57658688 43.74016869 371.41829586 C35.18831962 356.57028598 26.70016168 341.68572289 18.21470177 326.79970455 C16.73475019 324.20387199 15.25398353 321.6085049 13.77309716 319.01320553 C12.72434361 317.17442388 11.67682121 315.33494461 10.62932885 313.4954443 C9.67981347 311.83134518 9.67981347 311.83134518 8.71111596 310.13362789 C8.15311303 309.15450436 7.5951101 308.17538082 7.02019799 307.16658688 C5.9334916 305.30763079 4.77273264 303.49167792 3.57830346 301.70003414 C3.82901224 297.04979066 6.26229173 293.50179212 8.64080346 289.63753414 C9.55808068 288.11264136 10.4732967 286.58650757 11.38689721 285.05940914 C11.8946267 284.21185055 12.40235619 283.36429195 12.92547143 282.49104977 C16.08233011 277.16029518 19.13698335 271.77068692 22.20330346 266.38753414 C22.88844157 265.18631478 23.57366367 263.98514333 24.25896752 262.78401852 C25.65970087 260.32857718 27.05989751 257.87283099 28.45965111 255.41683102 C44.78655318 226.77116332 44.78655318 226.77116332 53.01580346 212.51253414 C53.47060082 211.72225826 53.92539818 210.93198238 54.39397728 210.11775875 C57.46038274 204.81795485 57.46038274 204.81795485 58.57830346 203.70003414 C60.86720703 203.58639194 63.15968597 203.54492609 65.45135701 203.52950001 C66.18226907 203.52325302 66.91318112 203.51700604 67.66624203 203.51056975 C70.14667914 203.49068059 72.6271012 203.47803875 75.10758507 203.46538448 C76.89148731 203.45278983 78.6753868 203.4398006 80.45928353 203.42644799 C85.38597781 203.39103052 90.31269205 203.36225646 95.23943615 203.33476472 C99.4593014 203.31048235 103.67913989 203.28256681 107.89898347 203.25480841 C147.89954183 202.99332623 187.90081623 202.85153347 227.90203297 202.73709583 C233.1110999 202.72192772 238.32016588 202.70647022 243.52923119 202.6907568 C244.8239694 202.68686302 246.1187076 202.68296925 247.4526803 202.67895748 C268.42371123 202.61407348 289.39389709 202.48623115 310.36445808 202.3343011 C331.88220113 202.17969983 353.39950386 202.08944885 374.9177863 202.0598594 C388.19677332 202.0396358 401.47357481 201.96963965 414.75191361 201.83610071 C423.85504372 201.74942703 432.95699061 201.72549995 442.06049227 201.75099753 C447.31477121 201.76388189 452.56515422 201.74913587 457.81877816 201.66008282 C462.6318483 201.57911716 467.4383586 201.57698465 472.25167657 201.63696565 C473.99015634 201.64483293 475.72905738 201.62402827 477.4667564 201.57134126 C488.06644906 201.26897953 488.06644906 201.26897953 492.57830346 203.70003414 C496.76922643 207.89965328 499.22363205 213.22998635 501.60975982 218.59073223 C503.03400061 221.69245496 504.7495527 224.56727444 506.49236596 227.50081539 C507.73045432 229.67075582 508.96741334 231.84134095 510.20330346 234.01253414 C510.88677589 235.21117103 511.57037314 236.40973676 512.25408471 237.60823727 C513.66373874 240.07948412 515.07287483 242.55102514 516.48162377 245.02278805 C519.5118017 250.33849866 522.5486402 255.65040149 525.58516991 260.96248531 C526.58038221 262.70367104 527.57535676 264.4449924 528.57024682 266.18636227 C531.59722621 271.48446732 534.62488585 276.78217954 537.65528405 282.07833004 C539.3591593 285.05618718 541.0625992 288.03429318 542.76580346 291.01253414 C543.26755593 291.88987209 543.26755593 291.88987209 543.77944481 292.78493404 C548.78312332 301.53625666 553.75183332 310.3068097 558.6981765 319.09065914 C561.61672207 324.26306365 564.56374185 329.41792396 567.54314721 334.55550289 C567.8794767 335.13594357 568.2158062 335.71638424 568.5623275 336.31441402 C570.19313884 339.12785573 571.82743058 341.93917682 573.46721947 344.74739742 C574.64231562 346.77091714 575.80501573 348.80170032 576.9535476 350.840415 C578.01755312 352.7130967 579.12000191 354.56457012 580.26360619 356.38973141 C583.79632448 362.4080742 583.79632448 362.4080742 583.21941674 365.82674313 C582.21476856 368.06810734 581.02342518 369.9826476 579.64080346 372.01253414 C578.66494187 373.59419464 577.68970601 375.17624133 576.71502221 376.75862789 C576.19472435 377.5718652 575.6744265 378.3851025 575.13836205 379.22298336 C572.59743681 383.25744776 570.29212729 387.42137871 567.95330346 391.57503414 C566.93922458 393.34805476 565.92354161 395.12015868 564.90642846 396.89144039 C562.51477056 401.06238186 560.13049688 405.23745465 557.75017846 409.41487789 C551.39504793 420.56442239 545.01304866 431.69486396 538.51580346 442.76253414 C532.82315023 452.46492255 527.34149243 462.27500624 521.90447533 472.121665 C518.1512929 478.90690507 514.31630214 485.62753656 510.34588158 492.28743649 C506.72714175 498.38332514 503.27632852 504.56883327 499.82830346 510.76253414 C494.61086918 520.13137617 489.26826183 529.41654442 483.83806908 538.66341305 C478.96111647 546.99055022 474.24400895 555.40150806 469.54925072 563.83235836 C465.89271294 570.38702563 462.15428875 576.88223499 458.3219558 583.33528805 C454.3902536 589.97390763 450.6049068 596.69260276 446.81853783 603.41487789 C442.41237067 611.23441728 437.97208709 619.03399705 433.51580346 626.82503414 C433.17458458 627.42167873 432.83336571 628.01832333 432.48180687 628.63304806 C430.8006164 631.57256844 429.11901756 634.51185465 427.43719018 637.4510107 C424.81569225 642.03295113 422.19696789 646.61647397 419.57830346 651.20003414 C419.10682885 652.02495358 418.63535424 652.84987301 418.14959252 653.69979 C415.36758443 658.56737248 412.58744549 663.43601587 409.80877221 668.30550289 C403.02161488 680.19783041 396.22218254 692.08304477 389.39080346 703.95003414 C388.47367577 705.54657833 388.47367577 705.54657833 387.53802025 707.17537594 C386.95963402 708.1786694 386.38124779 709.18196285 385.78533471 710.21565914 C385.28493676 711.08480953 384.78453881 711.95395992 384.26897728 712.8494482 C383.71105492 713.79014156 383.15313256 714.73083492 382.57830346 715.70003414 C382.35110633 716.35636396 382.1239092 717.01269379 381.88982731 717.68891239 C380.76313032 720.33238295 379.77226871 721.81701116 377.57830346 723.70003414 C372.21653473 724.99714349 366.83616811 724.85002045 361.35419762 724.8235693 C359.65214889 724.84424119 357.95013897 724.86834732 356.24818283 724.8955965 C351.56606052 724.96016232 346.88491903 724.97447257 342.20240426 724.98037624 C337.15419299 724.99518133 332.10649084 725.05556044 327.05857384 725.10945797 C316.01703091 725.21813881 304.97572026 725.26632582 293.93373144 725.30154324 C287.03767276 725.32364497 280.14170378 725.35754457 273.24570572 725.39357662 C254.149303 725.49112854 235.05297217 725.57351517 215.95632565 725.60057735 C214.12273527 725.60321215 214.12273527 725.60321215 212.25210267 725.60590017 C210.41413536 725.6085195 210.41413536 725.6085195 208.53903741 725.61119175 C206.05611368 725.61473947 203.57319 725.61831198 201.09026635 725.62190914 C199.85865169 725.62368058 198.62703702 725.62545202 197.3581007 725.62727714 C177.41109428 725.65884671 157.46642866 725.79842218 137.52032614 725.98478532 C117.03740227 726.1746172 96.55565181 726.27419763 76.07183415 726.2835207 C64.57219659 726.29084963 53.07560673 726.33671204 41.57681 726.4820776 C31.78190851 726.60546636 21.99099434 726.64616293 12.19546319 726.58017278 C7.19840722 726.54895909 2.20937047 726.55603475 -2.78669059 726.66863155 C-31.95952221 727.28924566 -31.95952221 727.28924566 -39.36716282 721.33080769 C-44.1345049 715.66366931 -46.97013442 709.46772499 -49.39203453 702.51787376 C-50.77931216 698.72136014 -52.66904662 695.53973465 -54.79669654 692.11019039 C-56.00638868 689.99508154 -57.21475122 687.87921162 -58.42169654 685.76253414 C-58.74631874 685.19416836 -59.07094093 684.62580257 -59.40540016 684.04021358 C-64.25000745 675.55741606 -69.03751755 667.04358095 -73.79669654 658.51253414 C-77.93341128 651.09762486 -82.12661262 643.72728758 -86.46100318 636.4263525 C-92.21993971 626.70387855 -97.78728325 616.86966028 -103.37402809 607.04759884 C-105.68388238 602.9885713 -108.00891875 598.93852297 -110.33966529 594.89144039 C-111.53384827 592.80690382 -112.72786728 590.7222733 -113.92169654 588.63753414 C-114.47961891 587.67444332 -115.03754127 586.7113525 -115.61237037 585.71907711 C-116.36876808 584.3928735 -116.36876808 584.3928735 -117.14044654 583.03987789 C-117.58323951 582.27022701 -118.02603248 581.50057613 -118.48224342 580.7076025 C-119.42169654 578.70003414 -119.42169654 578.70003414 -119.42169654 575.70003414 C23.46830346 575.37003414 166.35830346 575.04003414 313.57830346 574.70003414 C318.52830346 565.79003414 323.47830346 556.88003414 328.57830346 547.70003414 C335.64080346 535.57503414 335.64080346 535.57503414 339.11345971 529.66097164 C342.68336174 523.55236072 346.13816461 517.3824099 349.57830346 511.20003414 C354.71375639 501.97212165 359.97818755 492.8301379 365.32610619 483.72395992 C370.12322495 475.53382253 374.76673185 467.26382159 379.36565697 458.96102047 C382.28610569 453.71067781 385.26710152 448.5129729 388.38299096 443.37581539 C388.99263695 442.36792965 389.60228295 441.36004391 390.23040307 440.32161617 C391.39467073 438.40828803 392.56950233 436.50133634 393.75628197 434.60188961 C394.27376 433.75126949 394.79123803 432.90064938 395.32439721 432.02425289 C395.78515648 431.28263912 396.24591576 430.54102535 396.72063744 429.77693844 C397.77350755 427.2273324 397.56074954 426.24120549 396.57830346 423.70003414 C395.22929925 421.07843992 393.84207244 418.51401791 392.39080346 415.95003414 C391.9544558 415.17144039 391.51810814 414.39284664 391.06853783 413.59065914 C386.72140417 405.8731403 382.23703176 398.23559572 377.75774682 390.59432125 C373.83619998 383.89321356 370.0086284 377.14949105 366.26140893 370.34969234 C361.63909813 361.97022424 356.8710651 353.6748404 352.11053002 345.37337399 C349.59524742 340.98485512 347.08705262 336.5922901 344.57830346 332.20003414 C341.59185792 326.97241926 338.60462168 321.74526458 335.61345971 316.52034664 C328.223459 303.6048395 320.90053652 290.65475418 313.57830346 277.70003414 C208.14330346 277.20503414 208.14330346 277.20503414 100.57830346 276.70003414 C99.91830346 278.35003414 99.25830346 280.00003414 98.57830346 281.70003414 C97.73886871 283.03513512 96.8616858 284.3472085 95.94939721 285.63362789 C90.14444647 293.88264163 90.14444647 293.88264163 89.16424096 303.46565914 C90.80954711 306.93748599 90.80954711 306.93748599 93.11034977 310.01874256 C94.82763966 312.46488604 96.18125181 314.85994719 97.39779675 317.5884943 C100.02203446 323.23673411 102.15698764 327.80344175 108.21675217 330.04732037 C112.75538123 330.71600836 117.27506939 330.52082699 121.84466088 330.35188961 C123.58990362 330.3427762 125.33519267 330.34041931 127.08045495 330.34427547 C130.82601163 330.33842105 134.56687644 330.28571795 138.31135666 330.19609356 C144.23270198 330.05519862 150.15166013 330.02297778 156.0744735 330.00548458 C166.50446345 329.9609265 176.93175876 329.82516922 187.36059105 329.66896725 C203.07035487 329.43437468 218.78061101 329.27062193 234.49193949 329.19425976 C240.37835654 329.16220129 246.26157635 329.08201453 252.14686346 328.96348929 C255.80613917 328.89806697 259.46505984 328.86937784 263.12484086 328.85006428 C264.82058495 328.83326123 266.51625757 328.80086625 268.21137154 328.75168324 C281.01330676 328.39118947 281.01330676 328.39118947 284.85994446 331.60822582 C286.44151819 333.92718176 287.52321732 336.10560353 288.57830346 338.70003414 C289.39635792 340.1786431 290.22773791 341.65004114 291.07830346 343.11019039 C291.91474469 344.65929755 292.74794151 346.21015984 293.57830346 347.76253414 C297.71304184 355.38755212 301.99473197 362.91029848 306.39080346 370.38753414 C311.91320876 379.78656463 317.29256637 389.25611651 322.57586205 398.79158688 C325.21256777 403.5366781 327.8785411 408.24682956 330.71502221 412.87581539 C331.19100853 413.6564233 331.66699486 414.43703121 332.15740502 415.24129391 C333.03312032 416.66519691 333.92095996 418.08174847 334.82342064 419.4888525 C337.63641666 424.06620235 337.63641666 424.06620235 337.36077416 427.07259274 C336.47428058 430.0493303 335.23414721 432.39112086 333.65642846 435.06722164 C333.04992455 436.10556149 332.44342064 437.14390133 331.81853783 438.21370602 C331.16176049 439.3229443 330.50498314 440.43218258 329.82830346 441.57503414 C328.79531993 443.33820033 327.7649999 445.10290534 326.7347976 446.86769772 C326.03426024 448.06742306 325.33291973 449.26667976 324.63079369 450.46547604 C321.38580006 456.00985838 318.22418802 461.59902933 315.07830346 467.20003414 C306.10106303 483.13856353 296.95471871 498.98161329 287.70330346 514.76253414 C287.29249535 515.46491207 286.88168725 516.16729 286.45843041 516.89095211 C283.69857778 521.57975982 283.69857778 521.57975982 282.57830346 522.70003414 C280.2797058 522.79823864 277.97801122 522.8237448 275.67731678 522.82308197 C274.94340876 522.82423581 274.20950074 522.82538966 273.45335308 522.82657847 C270.96279017 522.82925211 268.47229029 522.82471688 265.98173058 522.82028866 C264.19070401 522.82072421 262.3996775 522.82159881 260.60865134 522.82287782 C255.6626196 522.82512598 250.7166093 522.82109714 245.77058029 522.81609976 C240.44607641 522.81180002 235.12157384 522.81324135 229.79706872 522.81400204 C220.5638905 522.81452758 211.33071933 522.81137766 202.09754288 522.8057642 C188.74775347 522.79765323 175.39796748 522.79503439 162.04817588 522.79377621 C140.39146843 522.79158505 118.73476473 522.78492325 97.07805932 522.77547359 C76.03476524 522.76630112 54.99147218 522.75921948 33.9481765 522.75496578 C32.65208315 522.75470306 31.35598979 522.75444034 30.02062088 522.75416965 C23.51880459 522.75286466 17.0169883 522.75160094 10.515172 522.75035775 C-43.46378678 522.73998315 -97.44274148 522.72236312 -151.42169654 522.70003414 C-151.76428536 522.1001713 -152.10687418 521.50030846 -152.45984447 520.88226795 C-154.03039556 518.13247415 -155.6011665 515.38280598 -157.17194068 512.63313961 C-157.98023197 511.21783207 -157.98023197 511.21783207 -158.80485237 509.77393246 C-162.80143677 502.77836289 -166.82223892 495.79738481 -170.85919654 488.82503414 C-176.15786255 479.66010523 -181.39150803 470.46118206 -186.58209693 461.23470211 C-190.41854508 454.43215723 -194.34188464 447.68432123 -198.29669654 440.95003414 C-203.38083173 432.28872733 -208.31726963 423.55380346 -213.17169654 414.76253414 C-217.26014654 407.36061676 -221.36296426 399.97636434 -225.67169654 392.70003414 C-226.05535377 392.05074947 -226.439011 391.40146481 -226.8342942 390.73250484 C-228.5166525 387.89250522 -230.20659154 385.05736549 -231.90900123 382.22933102 C-233.46442932 379.64179644 -235.00608681 377.04641175 -236.54669654 374.45003414 C-237.03299537 373.65081539 -237.5192942 372.85159664 -238.02032936 372.02815914 C-238.6869358 370.89894039 -238.6869358 370.89894039 -239.36700904 369.74690914 C-239.76420143 369.08529781 -240.16139381 368.42368649 -240.57062232 367.74202633 C-241.64192114 365.17164673 -241.73341687 363.46704948 -241.42169654 360.70003414 C-240.3745774 358.35774899 -240.3745774 358.35774899 -238.88654029 355.91097164 C-238.05509498 354.51975094 -238.05509498 354.51975094 -237.20685279 353.10042477 C-236.59712623 352.10204586 -235.98739967 351.10366695 -235.35919654 350.07503414 C-234.06361426 347.90732321 -232.77074172 345.73799092 -231.48029029 343.56722164 C-230.8085276 342.43896969 -230.1367649 341.31071774 -229.44464576 340.14827633 C-226.16457146 334.5571866 -223.04505681 328.87969044 -219.92169654 323.20003414 C-214.59555188 313.5458369 -209.13484973 303.98433968 -203.55060279 294.47737789 C-199.60643365 287.75537405 -195.74025452 280.99411439 -191.92169654 274.20003414 C-187.51665301 266.36364427 -183.03315367 258.57873725 -178.48419654 250.82503414 C-173.05404863 241.56330505 -167.76355453 232.23105745 -162.53571022 222.85384274 C-157.37998536 213.60784676 -152.13887197 204.41277629 -146.87189186 195.2298193 C-144.46722877 191.03501813 -142.06987151 186.83604671 -139.67169654 182.63753414 C-138.67301431 180.89012935 -137.67431593 179.14273377 -136.67560279 177.39534664 C-134.32776721 173.28681603 -131.98181915 169.17721221 -129.63654029 165.06722164 C-123.08990876 153.59695454 -116.52876501 142.13564703 -109.92169654 130.70003414 C-99.21397998 112.16391575 -88.59557265 93.57760293 -78.07574928 74.934165 C-73.53974424 66.89841264 -68.96769682 58.88365806 -64.38263404 50.87581539 C-61.93252644 46.59660636 -59.48940614 42.3135496 -57.06371242 38.02044582 C-56.06932445 36.28419597 -55.05789907 34.55748641 -54.02264303 32.84529018 C-51.30381076 28.30205084 -49.07586471 23.9688054 -47.37051761 18.94942379 C-38.96075589 -3.11833942 -20.22225555 -0.39531356 0 0 Z " fill="#243CDD" transform="translate(279.42169654369354,87.29996585845947)"/>
<path d="M0 0 C1.25649457 0.0018986 2.51298915 0.0037972 3.80755931 0.00575334 C4.51000755 -0.00001588 5.21245579 -0.0057851 5.93619034 -0.01172915 C8.30825526 -0.02504573 10.67864925 -0.00247035 13.05062896 0.0197199 C14.76088953 0.01754103 16.47114849 0.01316592 18.18139851 0.00677407 C22.89508411 -0.00444526 27.60820536 0.01564702 32.32181901 0.04066437 C37.39952357 0.06219433 42.47719459 0.05495425 47.55493194 0.051153 C56.35707396 0.04852728 65.15903111 0.06425606 73.96112663 0.0923422 C86.68755249 0.13292391 99.41388869 0.14599396 112.14037225 0.15228216 C132.78664074 0.16323372 153.43281064 0.19653128 174.07902557 0.24379522 C194.13859085 0.28966852 214.19812938 0.32507134 234.2577365 0.34633428 C236.1114785 0.3483047 236.1114785 0.3483047 238.00266983 0.35031494 C244.20226326 0.35683998 250.40185688 0.36315855 256.60145062 0.36937445 C308.05864337 0.42123429 359.51572908 0.50932301 410.97282439 0.62099248 C411.30282439 1.61099248 411.63282439 2.60099248 411.97282439 3.62099248 C275.02282439 3.62099248 138.07282439 3.62099248 -3.02717561 3.62099248 C-3.35717561 4.94099248 -3.68717561 6.26099248 -4.02717561 7.62099248 C-4.68717561 7.62099248 -5.34717561 7.62099248 -6.02717561 7.62099248 C-6.02717561 8.61099248 -6.02717561 9.60099248 -6.02717561 10.62099248 C-6.68717561 10.62099248 -7.34717561 10.62099248 -8.02717561 10.62099248 C-4.41893435 0.9064968 -4.41893435 0.9064968 0 0 Z " fill="#2A41D2" transform="translate(246.0271756052971,89.37900751829147)"/>
<path d="M0 0 C1 4 1 4 0 6 C-0.66 6 -1.32 6 -2 6 C-2.16435547 6.92232422 -2.16435547 6.92232422 -2.33203125 7.86328125 C-2.56986328 9.07564453 -2.56986328 9.07564453 -2.8125 10.3125 C-3.03873047 11.51326172 -3.03873047 11.51326172 -3.26953125 12.73828125 C-4.09204564 15.28499691 -5.03724303 16.23500192 -7 18 C-7.66 18.99 -8.32 19.98 -9 21 C-12.01198161 21.37259549 -12.01198161 21.37259549 -15.97718239 21.36914349 C-17.07217751 21.37433579 -17.07217751 21.37433579 -18.18929374 21.37963298 C-20.66070892 21.38763892 -23.13154981 21.37406167 -25.60293579 21.36076355 C-27.38245226 21.36207052 -29.16196818 21.36469492 -30.94148099 21.36853105 C-35.85111378 21.37526938 -40.76055186 21.36319756 -45.67015982 21.34819686 C-50.95715441 21.33528878 -56.24413728 21.33962224 -61.53114319 21.34190369 C-70.69775639 21.34347974 -79.86430573 21.33403589 -89.03090286 21.31719017 C-102.28439229 21.29284965 -115.53785071 21.28499998 -128.79136007 21.2812262 C-150.29223934 21.27465393 -171.79308455 21.25467176 -193.29394531 21.22631836 C-214.18489409 21.19879784 -235.07583364 21.17755444 -255.96679688 21.16479492 C-257.25366652 21.16400675 -258.54053617 21.16321858 -259.86640187 21.16240653 C-266.32199525 21.15849153 -272.7775887 21.15470037 -279.23318219 21.15097082 C-332.82214501 21.11985077 -386.41107085 21.0669939 -440 21 C-439.34 21.99 -438.68 22.98 -438 24 C-438 25.32 -438 26.64 -438 28 C-437.34 28.33 -436.68 28.66 -436 29 C-436 29.99 -436 30.98 -436 32 C-435.01 32.33 -434.02 32.66 -433 33 C-432.28272222 34.64551962 -431.61674772 36.31422289 -431 38 C-430.34 38.66 -429.68 39.32 -429 40 C-428.60235737 41.98821313 -428.26224651 43.98944339 -428 46 C-427.34 46 -426.68 46 -426 46 C-426 46.99 -426 47.98 -426 49 C-425.34 49.33 -424.68 49.66 -424 50 C-424.33 51.32 -424.66 52.64 -425 54 C-425.4031543 53.2793335 -425.80630859 52.55866699 -426.22167969 51.81616211 C-427.73477367 49.11175647 -429.24815316 46.40751086 -430.76171875 43.70336914 C-431.73198743 41.96968501 -432.70193427 40.23582076 -433.671875 38.50195312 C-434.290625 37.39658203 -434.909375 36.29121094 -435.546875 35.15234375 C-436.14435547 34.08226074 -436.74183594 33.01217773 -437.35742188 31.90966797 C-438.69214109 29.54534223 -440.06212917 27.21011223 -441.453125 24.87890625 C-443 22 -443 22 -443 19 C-300.11 18.67 -157.22 18.34 -10 18 C-5.05 9.09 -5.05 9.09 0 0 Z " fill="#5A68D4" transform="translate(603,644)"/>
<path d="M0 0 C0.66 0 1.32 0 2 0 C1.41646396 1.6975594 0.71949183 3.35544725 0 5 C-0.20534233 5.66262822 -0.41068466 6.32525645 -0.62224948 7.00796431 C-1.75667913 9.69561142 -2.73519995 11.12923481 -5 13 C-10.65355022 14.26819831 -16.28809048 14.06669694 -22.05740356 13.99568176 C-23.84976076 14.00274915 -25.64210701 14.01331529 -27.43442523 14.02708548 C-32.36607105 14.05472783 -37.29642588 14.03231307 -42.22800851 14.00182021 C-47.54369178 13.97759746 -52.85920977 13.99938384 -58.17489624 14.01542664 C-68.59019986 14.03947009 -79.00500771 14.02058078 -89.42026819 13.98705045 C-101.54039055 13.94946736 -113.66039689 13.95276929 -125.78056394 13.95748969 C-147.39954771 13.96437328 -169.0182967 13.93184911 -190.63720703 13.87817383 C-211.63271463 13.82606336 -232.62796524 13.80483013 -253.62353516 13.81665039 C-276.46932575 13.82946089 -299.31500653 13.82686233 -322.16078365 13.79580516 C-323.36788142 13.79416694 -324.5749792 13.79252872 -325.81865569 13.79084086 C-328.24328551 13.78754997 -330.66791528 13.78422821 -333.09254501 13.78087518 C-341.54857573 13.77008352 -350.00456999 13.7698289 -358.46060562 13.77317238 C-368.75874865 13.77672747 -379.05667571 13.76189756 -389.35475124 13.72361246 C-394.6128412 13.70445791 -399.87062416 13.69334312 -405.12874603 13.70369339 C-409.93635216 13.71289925 -414.74331396 13.69922756 -419.55081449 13.66679271 C-421.29564305 13.65908525 -423.04053304 13.65991116 -424.78535034 13.66984615 C-427.14664201 13.68203098 -429.50575403 13.66382834 -431.86688423 13.63758564 C-433.83869343 13.63392867 -433.83869343 13.63392867 -435.85033715 13.63019782 C-439 13 -439 13 -440.94581974 10.5851509 C-442 8 -442 8 -442 6 C-441.01 6 -440.02 6 -439 6 C-438.34 7.32 -437.68 8.64 -437 10 C-294.44 10.33 -151.88 10.66 -5 11 C-5 9.02 -5 7.04 -5 5 C-4.34 5 -3.68 5 -3 5 C-2.67 4.01 -2.34 3.02 -2 2 C-1.34 2 -0.68 2 0 2 C0 1.34 0 0.68 0 0 Z " fill="#4C5DD8" transform="translate(567,597)"/>
<path d="M0 0 C1.98 2.475 1.98 2.475 4 5 C3.67 5.66 3.34 6.32 3 7 C-140.22 7.33 -283.44 7.66 -431 8 C-431 7.01 -431 6.02 -431 5 C-217.655 4.505 -217.655 4.505 0 4 C0 2.68 0 1.36 0 0 Z " fill="#5E6CDC" transform="translate(737,231)"/>
<path d="M0 0 C27.85028923 -0.09334214 55.70055511 -0.16392954 83.55096912 -0.20724869 C96.48170505 -0.22789498 109.41234393 -0.25605509 122.34301758 -0.30175781 C133.61023973 -0.34156226 144.87739161 -0.36741776 156.14468211 -0.37635398 C162.11350397 -0.38157955 168.08212477 -0.39390449 174.05088234 -0.42292023 C179.66425278 -0.44998829 185.27733855 -0.45846243 190.89076805 -0.45243073 C192.95520955 -0.45353483 195.01966018 -0.46153966 197.08404541 -0.4768219 C199.89470754 -0.49661509 202.70428355 -0.49197836 205.51496887 -0.48101807 C206.33889328 -0.49266943 207.16281769 -0.5043208 208.01170951 -0.51632524 C213.5118563 -0.45802995 213.5118563 -0.45802995 216.03031445 1.90506363 C217 4 217 4 217 6 C217.99 6.495 217.99 6.495 219 7 C219 8.65 219 10.3 219 12 C216.52806709 9.03368051 214.74381547 6.48763093 213 3 C142.71 2.67 72.42 2.34 0 2 C0 1.34 0 0.68 0 0 Z " fill="#4F62DA" transform="translate(380,362)"/>
<path d="M0 0 C0.99 0 1.98 0 3 0 C3.66 1.65 4.32 3.3 5 5 C63.74 5 122.48 5 183 5 C183.33 6.32 183.66 7.64 184 9 C184.99 9.495 184.99 9.495 186 10 C185.34 10.66 184.68 11.32 184 12 C183.01 10.515 183.01 10.515 182 9 C178.83684776 8.55086926 178.83684776 8.55086926 175.02883911 8.64164734 C173.94020075 8.63802719 173.94020075 8.63802719 172.8295697 8.63433391 C170.385022 8.62971219 167.94107245 8.64643893 165.49658203 8.6628418 C163.74910491 8.66364768 162.00162667 8.66305511 160.25415039 8.66116333 C156.48468064 8.65959913 152.71537035 8.66701493 148.94592667 8.68100548 C142.98813326 8.70208261 137.03053643 8.69739357 131.07272339 8.6879425 C114.12899963 8.66503175 97.18539186 8.6770121 80.24169922 8.71508789 C70.88867667 8.73587777 61.53589734 8.7352457 52.18287933 8.71155292 C46.25773288 8.69784695 40.33344366 8.71111704 34.40838265 8.74415052 C30.72388389 8.75846959 27.03977188 8.74787398 23.3553009 8.73016739 C21.64443066 8.72698356 19.93350601 8.73411729 18.22272873 8.75223351 C15.88917437 8.77548534 13.55862144 8.762013 11.22512817 8.73930359 C9.91877977 8.74135646 8.61243137 8.74340933 7.26649666 8.74552441 C4 8 4 8 1.54842949 5.07879353 C0 2 0 2 0 0 Z " fill="#5562DB" transform="translate(334,476)"/>
<path d="M0 0 C0.93423645 3.01031744 1.04449911 3.86650268 0 7 C-0.66 7 -1.32 7 -2 7 C-2.0825 8.11375 -2.165 9.2275 -2.25 10.375 C-2.4975 11.57125 -2.745 12.7675 -3 14 C-4.9375 15.125 -4.9375 15.125 -7 16 C-8.08742694 18.21433941 -8.08742694 18.21433941 -9 21 C-11.26192106 25.9415843 -13.73499903 30.64666538 -17 35 C-17.66 35 -18.32 35 -19 35 C-17.57514729 31.20501375 -15.83536519 27.74964336 -13.84765625 24.21875 C-13.23599609 23.12949219 -12.62433594 22.04023438 -11.99414062 20.91796875 C-11.03797852 19.22607422 -11.03797852 19.22607422 -10.0625 17.5 C-9.42892578 16.37207031 -8.79535156 15.24414062 -8.14257812 14.08203125 C-5.4818295 9.3536767 -2.8099166 4.64168761 0 0 Z " fill="#4B5BD4" transform="translate(97,345)"/>
<path d="M0 0 C1.98 0.99 1.98 0.99 4 2 C4 3.32 4 4.64 4 6 C4.66 6.33 5.32 6.66 6 7 C6 7.99 6 8.98 6 10 C6.99 10.33 7.98 10.66 9 11 C9.71727778 12.64551962 10.38325228 14.31422289 11 16 C11.66 16.66 12.32 17.32 13 18 C13.39764263 19.98821313 13.73775349 21.98944339 14 24 C14.66 24 15.32 24 16 24 C16 24.99 16 25.98 16 27 C16.66 27.33 17.32 27.66 18 28 C17.67 29.32 17.34 30.64 17 32 C16.59160889 31.26885986 16.18321777 30.53771973 15.76245117 29.78442383 C14.23670722 27.05376892 12.71026146 24.32350786 11.18334961 21.59350586 C10.20177404 19.83802811 9.22099827 18.08210323 8.24023438 16.32617188 C7.61826172 15.21435547 6.99628906 14.10253906 6.35546875 12.95703125 C5.78465576 11.93585205 5.21384277 10.91467285 4.62573242 9.86254883 C3.55136517 7.97082995 2.43974595 6.09973743 1.2902832 4.25268555 C0 2 0 2 0 0 Z " fill="#4C5DD3" transform="translate(161,666)"/>
<path d="M0 0 C0.66 0.99 1.32 1.98 2 3 C1.01 3.33 0.02 3.66 -1 4 C-1.144375 5.093125 -1.28875 6.18625 -1.4375 7.3125 C-2 11 -2 11 -3 14 C-3.66 14 -4.32 14 -5 14 C-5.66 15.32 -6.32 16.64 -7 18 C-7.66 18 -8.32 18 -9 18 C-9.103125 18.721875 -9.20625 19.44375 -9.3125 20.1875 C-10.06793947 23.27793421 -11.15531315 25.41743841 -13 28 C-13.66 28 -14.32 28 -15 28 C-13.60582632 24.29102741 -11.92181521 20.92161688 -9.9609375 17.48046875 C-9.09082031 15.9480957 -9.09082031 15.9480957 -8.203125 14.38476562 C-7.59984375 13.32966797 -6.9965625 12.27457031 -6.375 11.1875 C-5.76398437 10.11306641 -5.15296875 9.03863281 -4.5234375 7.93164062 C-3.01844115 5.28613924 -1.51054209 2.6423375 0 0 Z " fill="#4557D5" transform="translate(69,394)"/>
<path d="M0 0 C1.125 3.75 1.125 3.75 0 6 C-0.66 6 -1.32 6 -2 6 C-1.87625 7.0828125 -1.87625 7.0828125 -1.75 8.1875 C-2.07724172 11.86896938 -3.66859445 13.18859919 -6 16 C-6.33 17.0725 -6.66 18.145 -7 19.25 C-7.33 20.1575 -7.66 21.065 -8 22 C-10.125 22.875 -10.125 22.875 -12 23 C-10.46688715 17.48431813 -7.81247556 12.97965148 -4.875 8.125 C-4.40707031 7.34125 -3.93914062 6.5575 -3.45703125 5.75 C-2.30981892 3.83017528 -1.1573993 1.91369439 0 0 Z " fill="#4657D3" transform="translate(125,296)"/>
<path d="M0 0 C0.66 0 1.32 0 2 0 C2 0.66 2 1.32 2 2 C2.66 2.33 3.32 2.66 4 3 C4.33 3.99 4.66 4.98 5 6 C5.66 6.33 6.32 6.66 7 7 C7 8.32 7 9.64 7 11 C7.66 11 8.32 11 9 11 C9 11.99 9 12.98 9 14 C9.66 14.33 10.32 14.66 11 15 C13.76223278 17.76223278 13.57856291 20.20706617 14 24 C10.18877923 19.61887706 7.51741928 14.81823881 4.75 9.75 C4.29109375 8.92242188 3.8321875 8.09484375 3.359375 7.2421875 C0 1.14332217 0 1.14332217 0 0 Z " fill="#4F5FD5" transform="translate(72,511)"/>
<path d="M0 0 C0.66 1.32 1.32 2.64 2 4 C1.34 4 0.68 4 0 4 C0 4.66 0 5.32 0 6 C-0.66 6 -1.32 6 -2 6 C-2.144375 6.7425 -2.28875 7.485 -2.4375 8.25 C-2.90187492 10.52027739 -3.41863569 12.75759479 -4 15 C-4.66 15 -5.32 15 -6 15 C-6.33 15.99 -6.66 16.98 -7 18 C-7.66 18 -8.32 18 -9 18 C-7.65072455 13.46152802 -5.80840652 9.68067754 -3.375 5.625 C-2.74335937 4.56539062 -2.11171875 3.50578125 -1.4609375 2.4140625 C-0.73777344 1.21910156 -0.73777344 1.21910156 0 0 Z " fill="#4256D3" transform="translate(627,602)"/>
<path d="M0 0 C0.93423645 3.01031744 1.04449911 3.86650268 0 7 C-0.66 7 -1.32 7 -2 7 C-2.0825 8.11375 -2.165 9.2275 -2.25 10.375 C-3 14 -3 14 -5.0625 15.4375 C-6.0215625 15.7159375 -6.0215625 15.7159375 -7 16 C-6.66830805 9.69785303 -3.32676012 5.14783064 0 0 Z " fill="#3A4ED3" transform="translate(97,345)"/>
<path d="M0 0 C1.125 3.75 1.125 3.75 0 6 C-0.66 6 -1.32 6 -2 6 C-2.10957031 6.61488281 -2.21914063 7.22976563 -2.33203125 7.86328125 C-2.49058594 8.67152344 -2.64914062 9.47976563 -2.8125 10.3125 C-2.96332031 11.11300781 -3.11414063 11.91351562 -3.26953125 12.73828125 C-4.08500756 15.26320524 -4.91953671 16.38069734 -7 18 C-7.66 18 -8.32 18 -9 18 C-7.65072455 13.46152802 -5.80840652 9.68067754 -3.375 5.625 C-2.74335937 4.56539062 -2.11171875 3.50578125 -1.4609375 2.4140625 C-0.73777344 1.21910156 -0.73777344 1.21910156 0 0 Z " fill="#515FD1" transform="translate(603,644)"/>
<path d="M0 0 C0.66 0 1.32 0 2 0 C0.42986223 5.96652354 -2.75029782 10.82909025 -6 16 C-7 13 -7 13 -6 10 C-5.34 10 -4.68 10 -4 10 C-4 8.35 -4 6.7 -4 5 C-3.34 5 -2.68 5 -2 5 C-2 4.01 -2 3.02 -2 2 C-1.34 2 -0.68 2 0 2 C0 1.34 0 0.68 0 0 Z " fill="#4556D1" transform="translate(781,589)"/>
<path d="M0 0 C0.33 1.32 0.66 2.64 1 4 C0.34 4 -0.32 4 -1 4 C-1.144375 4.763125 -1.28875 5.52625 -1.4375 6.3125 C-2 9 -2 9 -3 12 C-3.66 12 -4.32 12 -5 12 C-5.103125 12.639375 -5.20625 13.27875 -5.3125 13.9375 C-5.539375 14.618125 -5.76625 15.29875 -6 16 C-6.99 16.33 -7.98 16.66 -9 17 C-7.51481201 12.95698825 -5.57122002 9.38853744 -3.375 5.6875 C-2.74335938 4.61886719 -2.11171875 3.55023438 -1.4609375 2.44921875 C-0.97882813 1.64097656 -0.49671875 0.83273438 0 0 Z " fill="#4A5AD2" transform="translate(228,116)"/>
<path d="M0 0 C0.33 0 0.66 0 1 0 C1.35099077 3.77315072 1.36755366 5.48542488 -0.875 8.625 C-1.57625 9.40875 -2.2775 10.1925 -3 11 C-3.350625 11.7425 -3.70125 12.485 -4.0625 13.25 C-5 15 -5 15 -8 16 C-6.57250019 12.20950293 -4.83763458 8.72877544 -2.875 5.1875 C-2.33617187 4.21167969 -1.79734375 3.23585937 -1.2421875 2.23046875 C-0.83226562 1.49441406 -0.42234375 0.75835937 0 0 Z " fill="#4A5BD4" transform="translate(218,133)"/>
<path d="M0 0 C0.66 0 1.32 0 2 0 C1.41734728 4.42323682 -0.26766211 7.5155864 -2.5625 11.3125 C-3.20316406 12.38113281 -3.84382812 13.44976563 -4.50390625 14.55078125 C-4.99761719 15.35902344 -5.49132812 16.16726563 -6 17 C-7.125 13.25 -7.125 13.25 -6 11 C-5.34 11 -4.68 11 -4 11 C-4 9.35 -4 7.7 -4 6 C-3.34 6 -2.68 6 -2 6 C-2 5.34 -2 4.68 -2 4 C-1.34 4 -0.68 4 0 4 C0 2.68 0 1.36 0 0 Z " fill="#4A5AD1" transform="translate(799,557)"/>
<path d="M0 0 C0.99 0.33 1.98 0.66 3 1 C3 2.32 3 3.64 3 5 C4.32 5.66 5.64 6.32 7 7 C7 8.65 7 10.3 7 12 C7.66 12.33 8.32 12.66 9 13 C8.34 13.66 7.68 14.32 7 15 C5.82823482 12.87767021 4.66245215 10.75242209 3.5 8.625 C3.16613281 8.02171875 2.83226563 7.4184375 2.48828125 6.796875 C0 2.2265625 0 2.2265625 0 0 Z " fill="#4A5AD4" transform="translate(64,496)"/>
<path d="M0 0 C0.66 0 1.32 0 2 0 C0.58707905 4.8274799 -1.42974154 8.7162359 -4 13 C-4.33 13 -4.66 13 -5 13 C-5.33 10.69 -5.66 8.38 -6 6 C-5.01 5.67 -4.02 5.34 -3 5 C-2.67 4.34 -2.34 3.68 -2 3 C-1.34 3 -0.68 3 0 3 C0 2.01 0 1.02 0 0 Z " fill="#4353D1" transform="translate(841,484)"/>
<path d="M0 0 C0.66 0 1.32 0 2 0 C1.41841104 4.03477342 0.13243941 6.85241201 -2 10.3125 C-2.53625 11.19550781 -3.0725 12.07851563 -3.625 12.98828125 C-4.07875 13.65214844 -4.5325 14.31601562 -5 15 C-5.33 15 -5.66 15 -6 15 C-6 13.35 -6 11.7 -6 10 C-5.34 10 -4.68 10 -4 10 C-3.7834375 9.071875 -3.7834375 9.071875 -3.5625 8.125 C-3 6 -3 6 -2 4 C-1.34 4 -0.68 4 0 4 C0 2.68 0 1.36 0 0 Z " fill="#4255D0" transform="translate(259,317)"/>
<path d="M0 0 C0.99 0 1.98 0 3 0 C1.56032356 5.23518706 -0.81696611 9.63026009 -4 14 C-4.33 14 -4.66 14 -5 14 C-5 12.35 -5 10.7 -5 9 C-4.01 8.67 -3.02 8.34 -2 8 C-2 7.01 -2 6.02 -2 5 C-1.34 5 -0.68 5 0 5 C0 3.35 0 1.7 0 0 Z " fill="#4256CF" transform="translate(607,525)"/>
<path d="M0 0 C0.99 0.33 1.98 0.66 3 1 C3 1.99 3 2.98 3 4 C3.66 4 4.32 4 5 4 C5 5.32 5 6.64 5 8 C5.66 8 6.32 8 7 8 C7 8.66 7 9.32 7 10 C7.66 10 8.32 10 9 10 C8.67 11.32 8.34 12.64 8 14 C0 4.57142857 0 4.57142857 0 0 Z " fill="#4B5BD2" transform="translate(660,481)"/>
<path d="M0 0 C0.66 0.99 1.32 1.98 2 3 C1.01 4.485 1.01 4.485 0 6 C-0.66 6 -1.32 6 -2 6 C-2.12375 6.763125 -2.2475 7.52625 -2.375 8.3125 C-3 11 -3 11 -5 14 C-5.66 14 -6.32 14 -7 14 C-5.23570801 9.02790438 -2.6060834 4.56561939 0 0 Z " fill="#4859D1" transform="translate(293,369)"/>
<path d="M0 0 C0.66 0.99 1.32 1.98 2 3 C1.01 3.33 0.02 3.66 -1 4 C-1.103125 4.721875 -1.20625 5.44375 -1.3125 6.1875 C-2.06793947 9.27793421 -3.15531315 11.41743841 -5 14 C-5.66 14 -6.32 14 -7 14 C-5.23570801 9.02790438 -2.6060834 4.56561939 0 0 Z " fill="#4F60D5" transform="translate(61,408)"/>
<path d="M0 0 C0.33 0 0.66 0 1 0 C1.33 1.98 1.66 3.96 2 6 C-1.75 9 -1.75 9 -4 9 C-4 9.99 -4 10.98 -4 12 C-4.66 12 -5.32 12 -6 12 C-4.43358249 7.69235185 -2.31663844 3.93828536 0 0 Z " fill="#4757D4" transform="translate(140,270)"/>
<path d="M0 0 C0.66 0 1.32 0 2 0 C0.23570801 4.97209562 -2.3939166 9.43438061 -5 14 C-5.33 12.68 -5.66 11.36 -6 10 C-5.34 10 -4.68 10 -4 10 C-4.33 8.68 -4.66 7.36 -5 6 C-4.01 6 -3.02 6 -2 6 C-2 5.01 -2 4.02 -2 3 C-1.34 3 -0.68 3 0 3 C0 2.01 0 1.02 0 0 Z " fill="#4B5BD1" transform="translate(703,726)"/>
<path d="M0 0 C0.33 0.66 0.66 1.32 1 2 C-0.21484375 4.8203125 -0.21484375 4.8203125 -1.9375 8.125 C-2.50339844 9.22070312 -3.06929687 10.31640625 -3.65234375 11.4453125 C-4.09707031 12.28835938 -4.54179688 13.13140625 -5 14 C-5.66 14 -6.32 14 -7 14 C-5.53967505 8.68972746 -3.01679014 4.53669968 0 0 Z " fill="#5364D4" transform="translate(529,520)"/>
<path d="M0 0 C0.97918775 3.07556958 1.1498998 3.68592423 -0.3125 6.75 C-0.869375 7.4925 -1.42625 8.235 -2 9 C-2.66 9 -3.32 9 -4 9 C-4.33 10.65 -4.66 12.3 -5 14 C-5.66 14 -6.32 14 -7 14 C-5.53967505 8.68972746 -3.01679014 4.53669968 0 0 Z " fill="#4A5BD2" transform="translate(324,315)"/>
<path d="M0 0 C0.99 0.33 1.98 0.66 3 1 C3.3721042 2.32303717 3.70630173 3.65737935 4 5 C4.66 5.33 5.32 5.66 6 6 C6 7.32 6 8.64 6 10 C6.66 10.33 7.32 10.66 8 11 C8 11.99 8 12.98 8 14 C5.50447597 11.72402354 3.93377014 9.39278822 2.3125 6.4375 C1.87550781 5.65246094 1.43851563 4.86742187 0.98828125 4.05859375 C0 2 0 2 0 0 Z " fill="#5063D4" transform="translate(213,757)"/>
<path d="M0 0 C1.33332095 2.6666419 0.67102033 4.16680303 0 7 C-0.66 7 -1.32 7 -2 7 C-2 7.66 -2 8.32 -2 9 C-2.66 9 -3.32 9 -4 9 C-4 9.99 -4 10.98 -4 12 C-4.66 12 -5.32 12 -6 12 C-4.43358249 7.69235185 -2.31663844 3.93828536 0 0 Z " fill="#4A5CD4" transform="translate(613,627)"/>
<path d="M0 0 C0.33 0.66 0.66 1.32 1 2 C0.06421005 4.35981813 -0.93347808 6.69631264 -2 9 C-2.66 9 -3.32 9 -4 9 C-4.33 10.65 -4.66 12.3 -5 14 C-5.66 14 -6.32 14 -7 14 C-5.53967505 8.68972746 -3.01679014 4.53669968 0 0 Z " fill="#5260D2" transform="translate(673,522)"/>
<path d="M0 0 C0.33 0 0.66 0 1 0 C1.33292585 4.24480464 1.43885872 6.35542625 -1 9.9375 C-1.66 10.618125 -2.32 11.29875 -3 12 C-2.88601335 10.37419034 -2.75844341 8.74932843 -2.625 7.125 C-2.55539062 6.22007812 -2.48578125 5.31515625 -2.4140625 4.3828125 C-2 2 -2 2 0 0 Z " fill="#3548D5" transform="translate(852,462)"/>
<path d="M0 0 C0.66 0 1.32 0 2 0 C1.32902328 4.19360449 -0.8558394 7.40334352 -3 11 C-3.33 11 -3.66 11 -4 11 C-4 9.02 -4 7.04 -4 5 C-2.68 4.34 -1.36 3.68 0 3 C0 2.01 0 1.02 0 0 Z " fill="#4355D2" transform="translate(301,244)"/>
<path d="M0 0 C1 2 1 2 0.3125 4.875 C-1.03712351 8.08838932 -2.39272995 9.74036595 -5 12 C-5.33 11.34 -5.66 10.68 -6 10 C-4.78515625 7.6171875 -4.78515625 7.6171875 -3.0625 4.875 C-2.21365234 3.50988281 -2.21365234 3.50988281 -1.34765625 2.1171875 C-0.90292969 1.41851563 -0.45820312 0.71984375 0 0 Z " fill="#4D5ED5" transform="translate(657,550)"/>
<path d="M0 0 C0.99 0.33 1.98 0.66 3 1 C3 1.99 3 2.98 3 4 C3.66 4 4.32 4 5 4 C5 5.32 5 6.64 5 8 C5.99 8.33 6.98 8.66 8 9 C7.01 10.485 7.01 10.485 6 12 C4.99466333 10.37829621 3.99588093 8.75252763 3 7.125 C2.443125 6.22007812 1.88625 5.31515625 1.3125 4.3828125 C0 2 0 2 0 0 Z " fill="#4C5DD4" transform="translate(302,420)"/>
<path d="M0 0 C1.32 0 2.64 0 4 0 C3.67 1.32 3.34 2.64 3 4 C3.66 4 4.32 4 5 4 C5 4.99 5 5.98 5 7 C5.66 7 6.32 7 7 7 C7 8.65 7 10.3 7 12 C3.6497537 8.18765077 1.83025211 4.66714289 0 0 Z " fill="#4A5AD4" transform="translate(288,396)"/>
<path d="M0 0 C0.99 0.33 1.98 0.66 3 1 C1.02 4.63 -0.96 8.26 -3 12 C-3.33 10.68 -3.66 9.36 -4 8 C-3.34 8 -2.68 8 -2 8 C-2 6.35 -2 4.7 -2 3 C-1.34 3 -0.68 3 0 3 C0 2.01 0 1.02 0 0 Z " fill="#4356D0" transform="translate(669,784)"/>
<path d="M0 0 C1.32 0 2.64 0 4 0 C2.7508258 3.45925163 1.32472205 6.14693203 -1 9 C-1.09765625 2.84765625 -1.09765625 2.84765625 -1 1 C-0.67 0.67 -0.34 0.34 0 0 Z " fill="#4053D2" transform="translate(673,775)"/>
<path d="M0 0 C0.66 0 1.32 0 2 0 C0.55049545 3.7910119 -1.15172566 7.3874638 -3 11 C-3.33 11 -3.66 11 -4 11 C-4.33 9.02 -4.66 7.04 -5 5 C-4.34 5 -3.68 5 -3 5 C-2.67 4.01 -2.34 3.02 -2 2 C-1.34 2 -0.68 2 0 2 C0 1.34 0 0.68 0 0 Z " fill="#4457D2" transform="translate(567,597)"/>
<path d="M0 0 C2.86477034 1.05041579 3.83913226 1.70124563 5.3125 4.4375 C6 7 6 7 5 10 C4.16121545 8.71186658 3.32913217 7.41936744 2.5 6.125 C2.0359375 5.40570312 1.571875 4.68640625 1.09375 3.9453125 C0 2 0 2 0 0 Z " fill="#485AD4" transform="translate(110,577)"/>
<path d="M0 0 C0.82638376 2.89234315 1 4.88742431 1 8 C1.66 8.33 2.32 8.66 3 9 C3.33 9.66 3.66 10.32 4 11 C3.34 11.66 2.68 12.32 2 13 C-2.04847397 6.7432675 -2.04847397 6.7432675 -1.8125 3.125 C-1 1 -1 1 0 0 Z " fill="#5967D6" transform="translate(285,383)"/>
<path d="M0 0 C0.75 1.5625 0.75 1.5625 1 4 C-0.02332869 6.54719859 -1.27272296 8.86333587 -3 11 C-3.99 11.33 -4.98 11.66 -6 12 C-4.43358249 7.69235185 -2.31663844 3.93828536 0 0 Z " fill="#5061D3" transform="translate(173,212)"/>
<path d="M0 0 C6 7.71428571 6 7.71428571 6 11 C5.01 11 4.02 11 3 11 C3 10.34 3 9.68 3 9 C2.34 8.67 1.68 8.34 1 8 C0.40644386 5.35139573 0.25790731 2.70802678 0 0 Z " fill="#4253D1" transform="translate(720,201)"/>
<path d="M0 0 C-1.44950455 3.7910119 -3.15172566 7.3874638 -5 11 C-5.33 11 -5.66 11 -6 11 C-6 9.35 -6 7.7 -6 6 C-5.34 6 -4.68 6 -4 6 C-4 4.35 -4 2.7 -4 1 C-2 0 -2 0 0 0 Z " fill="#4455D0" transform="translate(733,677)"/>
<path d="M0 0 C0.66 0 1.32 0 2 0 C5 3.46153846 5 3.46153846 5 6 C5.66 6.33 6.32 6.66 7 7 C7 8.65 7 10.3 7 12 C3.6497537 8.18765077 1.83025211 4.66714289 0 0 Z " fill="#4455D1" transform="translate(592,362)"/>
<path d="M0 0 C3.09592835 3.5087188 4.74194623 6.49197399 6 11 C5.01 10.67 4.02 10.34 3 10 C3 9.01 3 8.02 3 7 C2.34 7 1.68 7 1 7 C0.67 4.69 0.34 2.38 0 0 Z " fill="#4859D2" transform="translate(684,138)"/>
<path d="M0 0 C2.5363613 1.01454452 3.79351461 1.6853556 5.3125 4 C5.539375 4.66 5.76625 5.32 6 6 C5.67 6.66 5.34 7.32 5 8 C5.66 8.33 6.32 8.66 7 9 C6.01 9 5.02 9 4 9 C0 2.25 0 2.25 0 0 Z " fill="#495BD4" transform="translate(668,495)"/>
<path d="M0 0 C2.61500768 2.36595933 4.38999603 4.86049226 6 8 C5.67 8.66 5.34 9.32 5 10 C3.0625 9.5 3.0625 9.5 1 8 C0.31209578 5.30341548 0.18053536 2.7982981 0 0 Z " fill="#495CD4" transform="translate(822,380)"/>
<path d="M0 0 C0.75 1.5625 0.75 1.5625 1 4 C-0.13084437 6.50286409 -1.52139516 8.67007722 -3 11 C-3.66 11 -4.32 11 -5 11 C-3.77472971 6.94718288 -2.30119506 3.55639236 0 0 Z " fill="#4F5FD4" transform="translate(162,231)"/>
<path d="M0 0 C0.66 0 1.32 0 2 0 C2 0.66 2 1.32 2 2 C2.99 2.33 3.98 2.66 5 3 C5.33 5.31 5.66 7.62 6 10 C3.25722422 6.80009492 1.3697164 3.99500618 0 0 Z " fill="#4656D3" transform="translate(199,733)"/>
<path d="M0 0 C0.66 0 1.32 0 2 0 C0.90931332 3.77545388 0.0916909 6.47043472 -3 9 C-3 7.02 -3 5.04 -3 3 C-2.34 3 -1.68 3 -1 3 C-0.67 2.01 -0.34 1.02 0 0 Z " fill="#4555CF" transform="translate(708,717)"/>
<path d="M0 0 C0.99 0 1.98 0 3 0 C3 1.32 3 2.64 3 4 C3.66 4.33 4.32 4.66 5 5 C6.125 7.0625 6.125 7.0625 7 9 C6.01 9.495 6.01 9.495 5 10 C3.35 6.7 1.7 3.4 0 0 Z " fill="#4D5BD4" transform="translate(96,553)"/>
<path d="M0 0 C3.875 1.75 3.875 1.75 5 4 C4.67 4.66 4.34 5.32 4 6 C4.66 6.33 5.32 6.66 6 7 C5.67 7.99 5.34 8.98 5 10 C4.16121545 8.71186658 3.32913217 7.41936744 2.5 6.125 C2.0359375 5.40570313 1.571875 4.68640625 1.09375 3.9453125 C0 2 0 2 0 0 Z " fill="#4F5FD4" transform="translate(319,450)"/>
<path d="M0 0 C0.6875 1.6875 0.6875 1.6875 1 4 C-0.25 6.6875 -0.25 6.6875 -2 9 C-2.99 9.33 -3.98 9.66 -5 10 C-3.66511872 6.40608886 -2.03977277 3.24509304 0 0 Z " fill="#4B5BD4" transform="translate(312,336)"/>
<path d="M0 0 C0.99 0 1.98 0 3 0 C1.90931332 3.77545388 1.0916909 6.47043472 -2 9 C-2 7.02 -2 5.04 -2 3 C-1.34 2.67 -0.68 2.34 0 2 C0 1.34 0 0.68 0 0 Z " fill="#4857D2" transform="translate(771,605)"/>
<path d="M0 0 C0.99 0 1.98 0 3 0 C2.39816251 2.02045442 1.72693904 4.02111039 1 6 C0.01 6.495 0.01 6.495 -1 7 C-1.625 4.625 -1.625 4.625 -2 2 C-1.34 1.34 -0.68 0.68 0 0 Z " fill="#3C4CD4" transform="translate(844,477)"/>
<path d="M0 0 C0.99 0 1.98 0 3 0 C3 1.65 3 3.3 3 5 C3.99 5 4.98 5 6 5 C5.67 6.32 5.34 7.64 5 9 C0.57142857 3.85714286 0.57142857 3.85714286 0 0 Z " fill="#4959D3" transform="translate(297,411)"/>
<path d="M0 0 C0.6875 1.6875 0.6875 1.6875 1 4 C-0.25 6.6875 -0.25 6.6875 -2 9 C-2.99 9.33 -3.98 9.66 -5 10 C-3.66511872 6.40608886 -2.03977277 3.24509304 0 0 Z " fill="#5362D5" transform="translate(112,319)"/>
<path d="M0 0 C3 1 3 1 4.25 2.8125 C5.11637742 5.33943414 4.88492145 6.52221994 4 9 C0 2.25 0 2.25 0 0 Z " fill="#4658D1" transform="translate(208,748)"/>
<path d="M0 0 C3 1 3 1 5 4 C5.125 6.6875 5.125 6.6875 5 9 C0.57142857 3.85714286 0.57142857 3.85714286 0 0 Z " fill="#4F5FD4" transform="translate(519,488)"/>
<path d="M0 0 C0.99 0 1.98 0 3 0 C3.53229326 1.26607607 4.05044544 2.53810412 4.5625 3.8125 C4.85253906 4.52019531 5.14257812 5.22789062 5.44140625 5.95703125 C6 8 6 8 5 11 C4.16151196 9.54462432 3.32936066 8.08559627 2.5 6.625 C1.80390625 5.40683594 1.80390625 5.40683594 1.09375 4.1640625 C0 2 0 2 0 0 Z " fill="#5464D6" transform="translate(608,390)"/>
<path d="M0 0 C0.66 0.99 1.32 1.98 2 3 C0.7260411 5.03833424 -0.61061923 7.03852126 -2 9 C-2.66 9 -3.32 9 -4 9 C-2.94124926 5.59687262 -1.99097846 2.98646769 0 0 Z " fill="#4759D2" transform="translate(301,355)"/>
<path d="M0 0 C0.66 0 1.32 0 2 0 C2 4 2 4 0.625 5.75 C-1 7 -1 7 -3 7 C-1.125 1.125 -1.125 1.125 0 0 Z " fill="#4558D0" transform="translate(597,655)"/>
<path d="M0 0 C0.66 1.32 1.32 2.64 2 4 C1.34 4 0.68 4 0 4 C0 4.66 0 5.32 0 6 C-0.66 6 -1.32 6 -2 6 C-2 6.99 -2 7.98 -2 9 C-2.66 9 -3.32 9 -4 9 C-2.80100302 5.9168649 -1.52299523 2.93720508 0 0 Z " fill="#4D5ED4" transform="translate(627,602)"/>
<path d="M0 0 C0.6875 1.6875 0.6875 1.6875 1 4 C-0.3125 6.75 -0.3125 6.75 -2 9 C-2.66 9 -3.32 9 -4 9 C-2.94124926 5.59687262 -1.99097846 2.98646769 0 0 Z " fill="#4C5ED3" transform="translate(662,541)"/>
<path d="M0 0 C0.99 0.33 1.98 0.66 3 1 C3.185625 2.2065625 3.185625 2.2065625 3.375 3.4375 C3.58125 4.283125 3.7875 5.12875 4 6 C4.66 6.33 5.32 6.66 6 7 C5.34 7.66 4.68 8.32 4 9 C0 2.25 0 2.25 0 0 Z " fill="#4D5ED4" transform="translate(49,470)"/>
<path d="M0 0 C0.6875 1.6875 0.6875 1.6875 1 4 C-0.3125 6.75 -0.3125 6.75 -2 9 C-2.66 9 -3.32 9 -4 9 C-2.80100302 5.9168649 -1.52299523 2.93720508 0 0 Z " fill="#485AD4" transform="translate(237,100)"/>
<path d="M0 0 C0.99 0 1.98 0 3 0 C3.66 1.98 4.32 3.96 5 6 C4.01 6.495 4.01 6.495 3 7 C0 2.25 0 2.25 0 0 Z " fill="#4B5AD5" transform="translate(226,780)"/>
<path d="M0 0 C0.93423645 3.01031744 1.04449911 3.86650268 0 7 C-2.0625 8.1875 -2.0625 8.1875 -4 9 C-2.80100302 5.9168649 -1.52299523 2.93720508 0 0 Z " fill="#4A5AD2" transform="translate(97,345)"/>
<path d="M0 0 C0.66 0.99 1.32 1.98 2 3 C1.01 3.33 0.02 3.66 -1 4 C-1.33 5.65 -1.66 7.3 -2 9 C-2.66 9 -3.32 9 -4 9 C-2.94124926 5.59687262 -1.99097846 2.98646769 0 0 Z " fill="#495CD2" transform="translate(329,306)"/>
</svg>
